1947 Earth  HINDI DVD-RIP XVID - BEST


Storyline

The movie opens in Lahore of 1947 before India and Pakistan became independent. It is a cosmopolitan city, depicted by the coterie of working class friends who are from different religions. The rest of the movie chronicles the fate of this group and the maddening religious that sweeps even this city as the partition of the two countries is decided and Lahore is given to Pakistan.


Genres:
Drama | Romance | War 


Country:
India | Canada


Language:
Hindi | English | Parsee | Punjabi | Urdu 


Directed By : Deepa Mehta

Produced By : Anne Masson, Deepa Mehta

Music Director : A R Rahman

Cast : Aamir Khan, Nandita Das, Rahul Khanna, Maia Sethna, Shabana Azmi, Kitu Gidwani, Arif Zakaria, Kulbhushan Kharbanda, Rajendra Kumar, Pavan Malhotra

Banner : Cracking the Earth Films Inc

Writers : Deepa Mehta


Format                           : AVI
Format/Info                      : Audio Video Interleave
Format profile                   : OpenDML
Overall bit rate                 : 1 800 Kbps
Writing application              : VirtualDubMod 1.5.10.2 (build 2542/release)
Writing library                  : VirtualDubMod build 2542/release


Video
ID                               : 0
Format                           : MPEG-4 Visual
Format profile                   : AdvancedSimple@L5
Format settings, BVOP            : Yes
Format settings, QPel            : No
Format settings, GMC             : No warppoints
Format settings, Matrix          : Default (MPEG)
Codec ID                         : XVID
Codec ID/Hint                    : XviD
Bit rate                         : 1 411 Kbps
Width                            : 640 pixels
Height                           : 272 pixels
Display aspect ratio             : 2.35:1
Frame rate                       : 23.976 fps
Resolution                       : 24 bits
Colorimetry                      : 4:2:0
Scan type                        : Progressive
Bits/(Pixel*Frame)               : 0.338
Stream size                      : 1.03 GiB (78%)
Writing library                  : XviD 64

Audio
ID                               : 1
Format                           : AC-3
Format/Info                      : Audio Coding 3
Codec ID                         : 2000
Bit rate mode                    : Constant
Bit rate                         : 384 Kbps
Channel(s)                       : 6 channels
Channel positions                : Front: L C R, Surround: L R, LFE
Sampling rate                    : 48.0 KHz
Stream size                      : 287 MiB (21%)
Alignment                        : Aligned on interleaves
Interleave, duration             : 64 ms (1.53 video frames)
Interleave, preload duration     : 192 ms